HIERARCHY
ROOT root
{
	OFFSET	0	13.1	24.9
	CHANNELS 6  Xposition Yposition Zposition Xrotation Yrotation Zrotation
	JOINT spine_1
	{
		OFFSET	0	9.99999	0
		CHANNELS 3  Xrotation Yrotation Zrotation
		JOINT spine_2
		{
			OFFSET	0	112	-10
			CHANNELS 3  Xrotation Yrotation Zrotation
			JOINT spine_3
			{
				OFFSET	0	206.5	19.3
				CHANNELS 3  Xrotation Yrotation Zrotation
				JOINT spine_4
				{
					OFFSET	0	110.4	14.6
					CHANNELS 3  Xrotation Yrotation Zrotation
					JOINT neck_1
					{
						OFFSET	0	71.8	-50.3
						CHANNELS 3  Xrotation Yrotation Zrotation
						JOINT neck_2
						{
							OFFSET	0	86.2	-25.8
							CHANNELS 3  Xrotation Yrotation Zrotation
							JOINT head_ee
							{
								OFFSET	0	179.8	-8.7
								CHANNELS 3  Xrotation Yrotation Zrotation
								End Site
								{
									OFFSET	1	0	0
								}
							}
						}
					}
					JOINT left_clavicle
					{
						OFFSET	-43.2	22.4	-70.8
						CHANNELS 3  Xrotation Yrotation Zrotation
						JOINT left_shoulder
						{
							OFFSET	-93.9	-5.79999	48.7
							CHANNELS 3  Xrotation Yrotation Zrotation
							JOINT left_elbow
							{
								OFFSET	-291.4	-30.8	15.2
								CHANNELS 3  Xrotation Yrotation Zrotation
								JOINT left_lowarm_twist
								{
									OFFSET	-110.7	-3.89999	13.6
									CHANNELS 3  Xrotation Yrotation Zrotation
									JOINT left_hand
									{
										OFFSET	-110.7	-3.89999	13.6
										CHANNELS 3  Xrotation Yrotation Zrotation
										JOINT left_ee
										{
											OFFSET	-80.8	-5.10001	12.1
											CHANNELS 3  Xrotation Yrotation Zrotation
											End Site
											{
												OFFSET	1	0	0
											}
										}
									}
								}
							}
						}
					}
					JOINT right_clavicle
					{
						OFFSET	43.2	22.4	-70.8
						CHANNELS 3  Xrotation Yrotation Zrotation
						JOINT right_shoulder
						{
							OFFSET	93.9	-5.79999	48.7
							CHANNELS 3  Xrotation Yrotation Zrotation
							JOINT right_elbow
							{
								OFFSET	291.4	-30.8	15.2
								CHANNELS 3  Xrotation Yrotation Zrotation
								JOINT right_lowarm_twist
								{
									OFFSET	110.7	-3.89999	13.6
									CHANNELS 3  Xrotation Yrotation Zrotation
									JOINT right_hand
									{
										OFFSET	110.7	-3.89999	13.6
										CHANNELS 3  Xrotation Yrotation Zrotation
										JOINT right_ee
										{
											OFFSET	80.8	-5.10001	12.1
											CHANNELS 3  Xrotation Yrotation Zrotation
											End Site
											{
												OFFSET	1	0	0
											}
										}
									}
								}
							}
						}
					}
				}
			}
		}
	}
	JOINT left_hip
	{
		OFFSET	-82.8	-127.5	0.300001
		CHANNELS 3  Xrotation Yrotation Zrotation
		JOINT left_knee
		{
			OFFSET	-28.2	-396.7	2.2
			CHANNELS 3  Xrotation Yrotation Zrotation
			JOINT left_ankle
			{
				OFFSET	-11.7	-411.3	35.4
				CHANNELS 3  Xrotation Yrotation Zrotation
				JOINT left_toes
				{
					OFFSET	0	-60	-88.6
					CHANNELS 3  Xrotation Yrotation Zrotation
					JOINT left_foot_ee
					{
						OFFSET	-22.5	-16.5	-42.2
						CHANNELS 3  Xrotation Yrotation Zrotation
						End Site
						{
							OFFSET	1	0	0
						}
					}
				}
			}
		}
	}
	JOINT right_hip
	{
		OFFSET	82.8	-127.5	0.300001
		CHANNELS 3  Xrotation Yrotation Zrotation
		JOINT right_knee
		{
			OFFSET	28.2	-396.7	2.2
			CHANNELS 3  Xrotation Yrotation Zrotation
			JOINT right_ankle
			{
				OFFSET	11.7	-411.3	35.4
				CHANNELS 3  Xrotation Yrotation Zrotation
				JOINT right_toes
				{
					OFFSET	0	-60	-88.6
					CHANNELS 3  Xrotation Yrotation Zrotation
					JOINT right_foot_ee
					{
						OFFSET	22.5	-16.5	-42.2
						CHANNELS 3  Xrotation Yrotation Zrotation
						End Site
						{
							OFFSET	1	0	0
						}
					}
				}
			}
		}
	}
}
MOTION
Frames: 12
Frame Time: 0.02
2240.51 730.754 -1525.06 -11.5537 68.1323 3.8661 3.03349 0.537912 1.96958 3.03555 0.411519 1.9998 3.04934 0.0907747 2.03966 3.04377 0.411698 1.99976 -10.0191 16.7265 0.485365 -10.3772 31.2086 4.83559 -0.0 0.0 -0.0 -3.39181 20.2377 -2.60958 -23.7764 -26.9913 68.151 0.737649 -20.0728 0.130552 -59.3351 -5.20017 5.08 1.07737 6.29946 9.71284 -0.0 0.0 -0.0 12.1739 15.5025 -24.578 1.50045 14.4481 -71.5173 1.90914 43.3979 -0.759758 -17.9686 0.967011 -2.07477 3.05065 -5.99933 -23.1319 0.0 0.0 0.0 6.4566 21.1684 -0.216284 -39.3216 -0.424176 5.9031 22.3885 11.7052 -3.03296 -40.0392 0.0 0.0 -0.0 0.0 -0.0 8.99058 13.2785 0.168756 0.0324073 0.00133593 0.00479376 22.7251 9.38184 3.18971 -30.3489 0.0 0.0 0.0 0.0 0.0 
2234.1 732.049 -1524.28 -13.3062 69.1538 5.53257 2.97789 0.432419 2.18195 2.98049 0.292734 2.20503 2.99102 -0.0612661 2.22352 2.98424 0.290579 2.20531 -10.8117 16.605 0.315148 -11.2629 31.1856 4.87911 -0.0 0.0 -0.0 -4.27114 21.4041 -3.63568 -21.8535 -27.1391 69.1923 0.688475 -18.832 0.114175 -58.3769 -5.08161 5.04779 1.45438 5.41707 11.8896 -0.0 0.0 -0.0 11.8257 14.9588 -23.8013 1.84052 16.4353 -71.6898 2.3963 49.8811 -1.11452 -14.477 0.728708 -1.69669 3.77051 0.137939 -26.0601 0.0 0.0 0.0 8.85135 19.3635 -0.878631 -37.1743 -0.296855 5.59863 28.5369 14.6771 -3.7697 -40.1556 0.0 0.0 -0.0 0.0 -0.0 9.43008 13.605 0.454435 -0.27242 -0.0111215 -0.0403262 23.4436 8.07123 3.257 -30.895 0.0 0.0 0.0 0.0 0.0 
2227.98 735.514 -1522.51 -13.717 68.7676 5.63686 2.88896 0.364761 2.32168 2.89193 0.216329 2.34017 2.89997 -0.161971 2.34456 2.89236 0.210237 2.34073 -10.4859 16.9006 1.29493 -10.8921 31.0644 5.80238 -0.0 0.0 -0.0 -4.33935 22.0005 -3.59282 -21.45 -26.1765 69.8087 0.591648 -16.3352 0.084917 -57.8556 -5.01734 5.02943 1.57757 5.59953 12.7872 -0.0 0.0 -0.0 12.103 17.8182 -24.3078 1.95816 18.575 -70.8276 2.76511 53.8585 -1.4048 -13.4148 0.660841 -1.57889 3.87386 1.82392 -26.1336 0.0 0.0 0.0 10.7091 21.2089 -1.22903 -33.3868 -0.100487 5.05098 29.96 17.1072 -3.95559 -40.173 0.0 0.0 -0.0 0.0 -0.0 9.99539 11.8077 0.501975 -1.48164 -0.0581646 -0.219933 23.6454 6.26833 3.25596 -32.283 0.0 0.0 0.0 0.0 0.0 
2220.35 734.581 -1523.61 -14.8844 69.2799 6.79241 2.84828 0.61031 2.35759 2.85126 0.459097 2.39162 2.86975 0.0683234 2.4343 2.86176 0.451808 2.39301 -10.7278 17.1614 1.36753 -11.1777 31.5441 6.02454 -0.0 0.0 -0.0 -4.73752 22.2845 -4.09219 -21.2996 -25.7375 70.5257 0.553335 -15.3288 0.0744643 -57.0574 -4.91923 5.00018 1.71044 5.38466 13.6024 -0.0 0.0 -0.0 11.7957 16.2556 -23.6817 2.70288 19.4538 -71.3074 3.10576 56.9647 -1.68534 -12.3712 0.596312 -1.46197 4.07978 3.27487 -27.0599 0.0 0.0 0.0 11.4071 20.3979 -1.18983 -30.7418 0.0149409 4.66155 28.6512 17.7767 -3.81832 -40.1337 0.0 0.0 -0.0 0.0 -0.0 9.47054 11.9196 0.765975 -0.720454 -0.0289941 -0.10676 24.5351 7.58465 3.38071 -32.5764 0.0 0.0 0.0 0.0 0.0 
2211.22 733.233 -1521.66 -16.1953 70.6804 8.45746 2.97967 0.444021 2.30164 2.98257 0.296703 2.32521 2.99379 -0.0763306 2.34281 2.98625 0.294528 2.32548 -9.13671 15.9723 -1.16113 -9.37231 30.7888 2.76817 -0.0 0.0 -0.0 -5.12814 22.7838 -4.51903 -21.0554 -25.578 71.1179 0.517321 -14.3738 0.0652331 -56.668 -4.87152 4.98542 1.95938 5.34754 15.2791 -0.0 0.0 -0.0 12.0002 16.9337 -24.118 3.09943 19.678 -70.71 3.05046 56.493 -1.63911 -12.3373 0.594252 -1.45816 4.19389 3.76322 -27.7101 0.0 0.0 0.0 11.0101 19.0337 -0.805911 -18.0381 0.31383 2.7389 31.3534 16.5321 -4.09981 -40.1466 0.0 0.0 -0.0 0.0 -0.0 9.90502 11.4631 0.955851 -3.23542 -0.119626 -0.482059 25.3264 6.58441 3.45951 -32.8527 0.0 0.0 0.0 0.0 0.0 
2206.69 732.193 -1520.29 -18.7458 71.46 11.0772 3.14679 0.400265 2.35073 3.14983 0.249914 2.37142 3.15915 -0.123032 2.38137 3.15132 0.254497 2.37093 -10.0682 15.3904 -0.753342 -10.3827 29.5117 3.2755 -0.0 0.0 -0.0 -5.46098 22.4702 -5.07629 -20.8084 -25.6578 71.8317 0.490946 -13.6692 0.0588428 -55.7282 -4.75678 4.94846 2.24263 4.26887 16.8179 -0.0 0.0 -0.0 11.9022 17.7831 -23.8495 2.73718 20.785 -70.6787 3.29231 58.4719 -1.84307 -10.7304 0.499208 -1.27586 4.51303 6.44608 -28.918 0.0 0.0 0.0 13.6273 18.9467 -1.48768 -15.9369 0.321892 2.41664 29.9799 11.5766 -3.90337 -40.1388 0.0 0.0 -0.0 0.0 -0.0 10.0149 11.0107 1.17872 -3.29056 -0.121428 -0.490329 27.4773 7.57235 3.72208 -32.7579 0.0 0.0 0.0 0.0 0.0 
2204.49 733.166 -1520.19 -19.3961 71.9103 11.8111 3.11152 0.422901 2.64116 3.11536 0.254041 2.6627 3.1259 -0.165967 2.66963 3.11604 0.25758 2.66235 -9.66928 14.5519 -1.71171 -9.91023 28.5343 2.00214 -0.0 0.0 -0.0 -5.78684 22.7005 -5.47745 -19.8365 -25.5521 72.3171 0.49139 -13.6811 0.0589478 -55.404 -4.71735 4.93527 2.31871 4.14207 17.2964 -0.0 0.0 -0.0 11.8483 18.7096 -23.672 2.6069 21.3894 -70.2006 3.3086 58.5977 -1.85696 -10.2293 0.470623 -1.21848 4.56345 7.61662 -28.7414 0.0 0.0 0.0 13.2082 18.7567 -1.11688 -14.288 0.319941 2.16367 30.4332 8.36954 -3.9373 -40.0426 0.0 0.0 -0.0 0.0 -0.0 9.80046 10.4196 0.902286 -2.996 -0.111709 -0.446168 27.4349 4.84634 3.6781 -33.2701 0.0 0.0 0.0 0.0 0.0 
2198.81 731.168 -1520.18 -20.9963 72.166 13.4827 3.10231 0.324709 2.76507 3.10655 0.148172 2.78012 3.1123 -0.28971 2.76896 3.10164 0.151056 2.77996 -8.85524 14.0091 -2.77032 -8.99119 28.1708 0.602375 -0.0 0.0 -0.0 -6.08394 22.6583 -5.91408 -19.3451 -25.5398 72.9111 0.48862 -13.6068 0.0582942 -54.3611 -4.59097 4.89133 2.66733 3.21792 19.3815 -0.0 0.0 -0.0 11.8459 18.0961 -23.7028 2.19847 22.1626 -70.5543 3.44469 59.614 -1.97375 -9.89359 0.451752 -1.1799 4.7013 8.44865 -29.3918 0.0 0.0 0.0 11.5093 18.4967 -0.258167 -9.64891 0.275433 1.45344 30.1707 9.24483 -3.91207 -39.9109 0.0 0.0 -0.0 0.0 -0.0 10.604 9.85917 1.1611 -4.36832 -0.155047 -0.652314 29.5473 5.84349 3.92516 -33.2564 0.0 0.0 0.0 0.0 0.0 
2196.83 730.51 -1517.24 -23.4712 71.6489 16.4657 3.20539 0.296468 2.78858 3.2097 0.118494 2.80178 3.21391 -0.317513 2.78626 3.2031 0.126331 2.80144 -8.3112 13.241 -3.47769 -8.36799 27.1851 -0.429804 -0.0 0.0 -0.0 -6.01087 22.6626 -5.80827 -18.541 -25.4611 73.3568 0.450204 -12.5724 0.0495937 -53.403 -4.47559 4.84894 2.97442 2.71695 21.3688 -0.0 0.0 -0.0 11.9874 19.3017 -23.9528 2.03826 21.7931 -69.7142 3.46926 59.7912 -1.99497 -9.33893 0.421074 -1.11592 4.82224 9.5391 -29.7735 0.0 0.0 0.0 10.5175 18.6939 0.358892 -4.21283 0.150385 0.628908 30.7153 7.56505 -3.96542 -39.9275 0.0 0.0 -0.0 0.0 -0.0 11.5626 9.95214 0.844051 -4.63543 -0.162907 -0.692553 29.5802 5.71667 3.92691 -33.3428 0.0 0.0 0.0 0.0 0.0 
2189.65 731.166 -1514.32 -20.5605 69.9486 13.6092 3.19614 0.571337 2.74774 3.20025 0.395403 2.77849 3.21801 -0.0398103 2.80618 3.20724 0.4037 2.7773 -7.11192 13.136 -3.18715 -7.06888 26.7109 -0.469439 -0.0 0.0 -0.0 -6.01927 23.7671 -5.49849 -18.331 -25.2683 73.2456 0.443635 -12.3947 0.0481737 -52.7996 -4.40329 4.82125 3.07302 2.24722 21.8952 -0.0 0.0 -0.0 12.2377 19.585 -24.5091 0.579419 21.2964 -69.1745 3.33821 58.8241 -1.88227 -9.11434 0.408829 -1.08994 4.91096 10.1929 -30.1213 0.0 0.0 0.0 8.67362 18.6839 1.01449 -4.04645 0.145326 0.603874 31.1277 6.3006 -4.00746 -40.1029 0.0 0.0 -0.0 0.0 -0.0 11.5059 9.69381 0.934756 -6.2378 -0.20611 -0.93466 29.7867 5.07919 3.94035 -33.486 0.0 0.0 0.0 0.0 0.0 
2186.5 731.928 -1512.58 -21.3324 70.9805 14.5301 3.22561 0.322488 2.90293 3.23029 0.137194 2.91755 3.23553 -0.3159 2.90365 3.22379 0.146441 2.9171 -7.2397 12.5789 -3.92004 -7.18623 26.202 -1.29374 -0.0 0.0 -0.0 -5.96873 23.2255 -5.58513 -17.5717 -25.3186 73.7524 0.40558 -11.3604 0.0403409 -52.2443 -4.33702 4.7951 3.37536 1.74789 23.8922 -0.0 0.0 -0.0 11.9729 19.7744 -23.8878 -0.473794 20.9059 -68.4341 3.37418 59.095 -1.91309 -8.65572 0.384142 -1.03672 4.99523 10.7963 -30.4566 0.0 0.0 0.0 8.20357 18.7169 1.16204 -3.04651 0.113392 0.453736 30.9269 4.77996 -3.98729 -39.9717 0.0 0.0 -0.0 0.0 -0.0 11.2658 9.52092 0.804894 -6.11626 -0.203071 -0.916256 30.1516 4.6394 3.9737 -33.398 0.0 0.0 0.0 0.0 0.0 
2177.81 731.311 -1510.39 -20.7417 69.754 13.8453 3.19764 0.379267 2.89904 3.2023 0.194105 2.91727 3.2105 -0.260832 2.91207 3.19872 0.202147 2.91673 -6.17919 12.3124 -4.61736 -6.01394 26.1542 -2.31728 -0.0 0.0 -0.0 -5.99808 23.0925 -5.66524 -17.0877 -25.3158 74.1896 0.427869 -11.9672 0.0448472 -51.7837 -4.28223 4.77293 3.56465 0.540447 24.8055 -0.0 0.0 -0.0 12.1069 19.8564 -24.1897 -1.80296 20.6358 -68.2927 3.19809 57.7265 -1.76308 -8.60359 0.381362 -1.03066 5.01319 11.8969 -30.0043 0.0 0.0 0.0 7.31482 18.7913 1.41677 -2.55524 0.0967431 0.380179 31.2949 3.52881 -4.02862 -39.3258 0.0 0.0 -0.0 0.0 -0.0 12.0982 9.70528 1.65225 -8.02437 -0.246272 -1.20587 32.5803 5.85066 4.24523 -33.7004 0.0 0.0 0.0 0.0 0.0 
